<svg width="20" height="20" viewBox="0 0 20 20" fill="none" xmlns="http://www.w3.org/2000/svg">
<path fill-rule="evenodd" clip-rule="evenodd" d="M5.04953 4.05C6.36235 2.73718 8.14292 1.99964 9.99953 1.99964C11.8561 1.99964 13.6367 2.73718 14.9495 4.05C16.2623 5.36282 16.9999 7.14339 16.9999 9C16.9999 10.8566 16.2623 12.6372 14.9495 13.95L9.99953 18.9L5.04953 13.95C4.39944 13.3 3.88376 12.5283 3.53193 11.6789C3.18011 10.8296 2.99902 9.91931 2.99902 9C2.99902 8.08069 3.18011 7.17038 3.53193 6.32105C3.88376 5.47172 4.39944 4.70002 5.04953 4.05ZM9.99953 11C10.53 11 11.0387 10.7893 11.4137 10.4142C11.7888 10.0391 11.9995 9.53043 11.9995 9C11.9995 8.46957 11.7888 7.96086 11.4137 7.58578C11.0387 7.21071 10.53 7 9.99953 7C9.4691 7 8.96039 7.21071 8.58532 7.58578C8.21024 7.96086 7.99953 8.46957 7.99953 9C7.99953 9.53043 8.21024 10.0391 8.58532 10.4142C8.96039 10.7893 9.4691 11 9.99953 11Z" fill="#6B7280"/>
</svg>
