<svg width="40" height="41" viewBox="0 0 40 41" fill="none" xmlns="http://www.w3.org/2000/svg">
<path d="M11.6156 12.6344C11.4994 12.5183 11.4072 12.3804 11.3443 12.2287C11.2814 12.0769 11.249 11.9143 11.249 11.75C11.249 11.5857 11.2814 11.4231 11.3443 11.2713C11.4072 11.1196 11.4994 10.9817 11.6156 10.8656L19.1156 3.36563C19.2317 3.24941 19.3696 3.15721 19.5213 3.09431C19.6731 3.0314 19.8357 2.99902 20 2.99902C20.1643 2.99902 20.3269 3.0314 20.4787 3.09431C20.6304 3.15721 20.7683 3.24941 20.8844 3.36563L28.3844 10.8656C28.6189 11.1002 28.7507 11.4183 28.7507 11.75C28.7507 12.0817 28.6189 12.3998 28.3844 12.6344C28.1498 12.8689 27.8317 13.0007 27.5 13.0007C27.1683 13.0007 26.8502 12.8689 26.6156 12.6344L21.25 7.26719V20.5C21.25 20.8315 21.1183 21.1495 20.8839 21.3839C20.6495 21.6183 20.3315 21.75 20 21.75C19.6685 21.75 19.3505 21.6183 19.1161 21.3839C18.8817 21.1495 18.75 20.8315 18.75 20.5V7.26719L13.3844 12.6344C13.2683 12.7506 13.1304 12.8428 12.9787 12.9057C12.8269 12.9686 12.6643 13.001 12.5 13.001C12.3357 13.001 12.1731 12.9686 12.0213 12.9057C11.8696 12.8428 11.7317 12.7506 11.6156 12.6344ZM37.5 21.75V31.75C37.5 32.413 37.2366 33.0489 36.7678 33.5178C36.2989 33.9866 35.663 34.25 35 34.25H5C4.33696 34.25 3.70107 33.9866 3.23223 33.5178C2.76339 33.0489 2.5 32.413 2.5 31.75V21.75C2.5 21.087 2.76339 20.4511 3.23223 19.9822C3.70107 19.5134 4.33696 19.25 5 19.25H15.625C15.7908 19.25 15.9497 19.3159 16.0669 19.4331C16.1842 19.5503 16.25 19.7092 16.25 19.875V20.4156C16.25 22.5172 17.9688 24.2891 20.0719 24.25C21.0539 24.2312 21.9894 23.8278 22.6772 23.1266C23.365 22.4253 23.7502 21.4822 23.75 20.5V19.875C23.75 19.7092 23.8158 19.5503 23.9331 19.4331C24.0503 19.3159 24.2092 19.25 24.375 19.25H35C35.663 19.25 36.2989 19.5134 36.7678 19.9822C37.2366 20.4511 37.5 21.087 37.5 21.75ZM31.25 26.75C31.25 26.3792 31.14 26.0167 30.934 25.7083C30.728 25.4 30.4351 25.1596 30.0925 25.0177C29.7499 24.8758 29.3729 24.8387 29.0092 24.911C28.6455 24.9834 28.3114 25.162 28.0492 25.4242C27.787 25.6864 27.6084 26.0205 27.536 26.3842C27.4637 26.7479 27.5008 27.1249 27.6427 27.4675C27.7846 27.8101 28.025 28.103 28.3333 28.309C28.6416 28.515 29.0042 28.625 29.375 28.625C29.8723 28.625 30.3492 28.4275 30.7008 28.0758C31.0525 27.7242 31.25 27.2473 31.25 26.75Z" fill="#6C6B80"/>
</svg>
